<?xml version="1.0" encoding="UTF-8"?>
<svg xmlns="http://www.w3.org/2000/svg" version="1.1" viewBox="0 0 612 792">
  <defs>
    <style>
      .cls-1 {
        fill: #fff;
      }
    </style>
  </defs>
  <!-- Generator: Adobe Illustrator 28.7.1, SVG Export Plug-In . SVG Version: 1.2.0 Build 142)  -->
  <g>
    <g id="Layer_1">
      <path d="M82.39,419.95c1.38-30.99,13.66-52.8,36.4-68.73,12.56-8.8,26.22-14.94,41.71-16.84,40.95-5.02,74.73,27.75,70.98,68.92-1.61,17.66-7.09,33.5-20.17,46.02-2.5,2.39-5.48,4.3-8.35,6.27-1.06.73-2.41,1.16-3.68,1.43-3.6.79-6.68-.06-8.51-3.51-1.77-3.35.03-5.75,2.47-7.78,7.52-6.27,13.93-13.43,17.56-22.66,6.55-16.71,8.24-33.42-1.84-49.4-10.79-17.11-32.51-25.53-52.79-21.03-29.36,6.52-52.79,30.53-56.59,58.43-2.14,15.69,3.04,29.17,13.63,40.75,2.02,2.21,5.31,4.12,2.4,7.93-2.87,3.76-6.56,3.9-10.24,1.91-9.78-5.31-15.34-14.25-18.9-24.28-2.31-6.5-3.19-13.51-4.07-17.42Z"/>
      <path d="M180.8,407.89c-3.22-4.27-6.44-8.54-9.67-12.81-.37.04-.74.09-1.12.13,0,3.17-.15,6.36.03,9.52.58,10.46,1.84,20.92,1.78,31.37-.08,13.97-7.9,23.11-20.25,25.25-12.65,2.19-23.36-6.04-22.54-17.33.59-8.1,7.98-14.5,17.68-15.28,1.46-.12,2.94-.02,4.87-.02,0-2.91.16-5.5-.03-8.08-1.17-16.09-2.23-32.2-3.76-48.26-.46-4.85,1.24-7.15,5.61-8.24,5-1.24,9.94-2.76,14.99-3.73,1.09-.21,3.03,1.11,3.72,2.25,4.91,8.07,9.61,16.27,14.36,24.44.65,1.11,1.89,2.48,1.64,3.41-1.57,5.8-3.49,11.51-5.29,17.25-.67.04-1.35.07-2.02.11Z"/>
      <path d="M277.75,389.88c-2.5,5.73-4.79,11.56-7.61,17.12-.96,1.89-3.24,4.23-4.97,4.27-1.7.04-3.98-2.26-5.1-4.08-2.83-4.62-5.14-9.55-8.78-14.18v25.75h-7.61v-43.5c2.57,0,5.09-.34,7.44.14,1.16.24,2.37,1.84,2.93,3.1,3.51,7.84,6.84,15.76,10.23,23.65.46,0,.92,0,1.38,0,2.3-5.92,4.6-11.84,6.88-17.77.36-.93.59-1.91.94-2.84,2.89-7.75,3.53-8.08,12.42-6.08.82,13.48,1.71,27.07,2.32,40.68.04.99-1.83,2.68-3.07,2.99-2.31.58-4.74.39-4.92-3.09-.39-7.65-.89-15.29-1.34-22.94-.06-.98-.12-1.97-.18-2.95-.32-.09-.64-.19-.96-.28Z"/>
      <path d="M422.14,380.87c-2.84,1.32-5.37,2.51-8.12,3.79-.44-.3-1.1-.55-1.47-1.02-5.61-7.32-14.76-5.8-19.82-1.04-6.23,5.86-7.07,15.4-1.92,21.18,5.25,5.89,14.99,6.52,21.07.78,3.21-3.03,5.34-2.63,7.72.43,2.55,3.27.26,5.23-2.13,6.93-12.82,9.08-32.43,4.54-37.63-8.68-4.5-11.44.9-25.94,11.67-31.34,11.31-5.67,23.84-2.17,30.63,8.98Z"/>
      <path d="M483.89,383.23c0-5.46.12-10.27-.04-15.06-.11-3.26,1.76-3.45,4.17-3.26,2.16.17,4.93-.92,4.83,3.04-.38,15.44-.67,30.88-1,46.46-2.29.42-4.03.74-6.27,1.15-.12-1.99-.22-3.7-.35-5.9-.9.67-1.67,1.1-2.25,1.7-6.28,6.55-15.68,5.29-19.9-2.79-3.53-6.77-3.48-13.48,1.23-19.72,4.97-6.58,11.46-8.68,19.59-5.61ZM476.56,406.8c4.65.11,8.97-4.7,9.04-10.06.06-4.54-2.87-7.66-7.23-7.73-4.56-.07-8.71,4.51-8.8,9.69-.08,4.55,2.9,7.99,6.99,8.09Z"/>
      <path d="M440.64,383.61c9.48.05,17.14,7.31,16.93,16.05-.22,9.09-8.59,16.77-18.35,16.82-9.09.05-16-6.87-16.12-16.15-.12-9.08,7.95-16.77,17.55-16.72ZM440.25,390.8c-4.47.04-8.32,4.15-8.35,8.91-.03,5.04,3.83,9.05,8.68,9,4.97-.05,8.68-3.93,8.63-9.04-.05-4.89-4.11-8.92-8.96-8.87Z"/>
      <path d="M353.89,394.61c-1.58-.98-3-2.24-4.65-2.78-2.29-.75-4.82-1.51-7.12-1.21-1.47.19-2.7,2.27-4.04,3.51,1.55.9,3.01,2.08,4.68,2.61,1.53.48,3.3.16,4.95.36,5.76.72,8.65,3.21,9.37,7.97.71,4.69-2.42,10.49-7.14,11.98-7.05,2.24-13.91,1.58-19.59-3.62-1.15-1.05-1.2-3.31-1.75-5.02,1.58.16,3.19.17,4.73.5,3.98.85,7.92,2.37,11.91,2.5,1.52.05,3.15-2.96,4.72-4.57-1.78-.59-3.52-1.34-5.35-1.72-1.09-.22-2.31.2-3.47.23-6.13.14-11.15-3.71-11.94-9.13-.73-4.95,2.61-10.02,8.78-10.78,4.85-.6,10.1.38,14.91,1.67,4,1.08,4.21,4.15.99,7.5Z"/>
      <path d="M530.31,399.04h-23.25c1.08,7.56,6.38,10.31,13.13,7.88,2.48-.89,5.3-.82,8.69-1.29-2.75,7.75-10.04,10.9-17.82,8.96-8.66-2.16-13.61-9.54-12.32-18.36,1.34-9.14,8.54-14.59,18.2-13.78,8.34.7,13.16,6.31,13.35,16.6ZM521.61,394.33c-1.28-4.4-3.56-6.68-7.61-6.44-3.72.22-5.93,2.31-6.51,6.44h14.12Z"/>
      <path d="M302.9,385.19c0,6.71-.11,12.49.06,18.27.06,1.92.22,4.55,1.42,5.56,1.64,1.38,4.54,2.4,6.49,1.92,1.52-.37,3.31-3.22,3.43-5.06.41-6.59.16-13.22.16-20.17h7.16v32.84c-2.8.1-6.22,2.61-7.46-2.61-2.13,1.13-4.03,2.52-6.16,3.18-5.64,1.77-12.16-2.94-12.92-9.94-.73-6.76-.82-13.64-.46-20.43.27-5.03,4.75-2.33,8.27-3.55Z"/>
      <path d="M364.36,383.58c2.58-.15,4.85-.27,7.59-.43v34.11c-2.46.11-4.84.22-7.59.34v-34.03Z"/>
      <path d="M373.43,373.33c-2.13,1.63-4.1,4.07-6.46,4.56-1.31.27-4.41-2.55-4.73-4.34-.61-3.39,2.01-5.86,5.36-5.71,1.93.09,3.77,2.15,5.64,3.32.06.72.12,1.44.18,2.17Z"/>
      <path class="cls-1" d="M476.56,406.8c-4.1-.1-7.07-3.54-6.99-8.09.09-5.18,4.24-9.76,8.8-9.69,4.36.07,7.29,3.19,7.23,7.73-.06,5.35-4.39,10.17-9.04,10.06Z"/>
      <path class="cls-1" d="M440.25,390.8c4.84-.05,8.91,3.99,8.96,8.87.05,5.11-3.66,8.99-8.63,9.04-4.85.04-8.71-3.96-8.68-9,.03-4.76,3.88-8.87,8.35-8.91Z"/>
      <path class="cls-1" d="M521.61,394.33h-14.12c.58-4.13,2.78-6.22,6.51-6.44,4.05-.24,6.33,2.04,7.61,6.44Z"/>
    </g>
  </g>
</svg>